<svg width="564" height="310" viewBox="0 0 564 310" fill="none" xmlns="http://www.w3.org/2000/svg">
<rect width="564" height="310" fill="white"/>
<path d="M226.76 202V112.4H281.288V121.232H237.512V152.72H274.76V161.424H237.512V202H226.76ZM290.546 202V138.512H301.298V202H290.546ZM295.922 125.84C293.789 125.84 291.997 125.115 290.546 123.664C289.095 122.213 288.37 120.421 288.37 118.288C288.37 116.24 289.095 114.491 290.546 113.04C291.997 111.589 293.789 110.864 295.922 110.864C297.97 110.864 299.719 111.589 301.17 113.04C302.621 114.491 303.346 116.283 303.346 118.416C303.346 120.464 302.621 122.213 301.17 123.664C299.719 125.115 297.97 125.84 295.922 125.84ZM313.62 202V138.512H323.092L324.116 152.336H324.628C326.761 147.728 328.852 144.357 330.9 142.224C332.948 140.005 335.295 138.597 337.94 138C340.671 137.317 344.041 136.976 348.052 136.976V148.24H345.236C341.823 148.24 338.793 148.709 336.148 149.648C333.503 150.501 331.327 151.781 329.62 153.488C327.913 155.195 326.591 157.371 325.652 160.016C324.799 162.576 324.372 165.605 324.372 169.104V202H313.62ZM380.807 203.536C374.748 203.536 369.372 202.171 364.679 199.44C359.986 196.624 356.274 192.741 353.543 187.792C350.898 182.757 349.575 176.912 349.575 170.256C349.575 163.515 350.898 157.669 353.543 152.72C356.188 147.771 359.858 143.931 364.551 141.2C369.33 138.384 374.834 136.976 381.063 136.976C387.292 136.976 392.626 138.384 397.063 141.2C401.5 143.931 404.914 147.557 407.303 152.08C409.692 156.517 410.887 161.381 410.887 166.672C410.887 167.525 410.887 168.464 410.887 169.488C410.887 170.427 410.844 171.493 410.759 172.688H357.639V164.368H400.263C400.007 158.309 398.044 153.616 394.375 150.288C390.791 146.96 386.268 145.296 380.807 145.296C377.138 145.296 373.724 146.107 370.567 147.728C367.41 149.349 364.85 151.781 362.887 155.024C361.01 158.267 360.071 162.363 360.071 167.312V170.896C360.071 176.187 361.052 180.581 363.015 184.08C364.978 187.579 367.538 190.224 370.695 192.016C373.938 193.723 377.308 194.576 380.807 194.576C385.244 194.576 388.956 193.552 391.943 191.504C394.93 189.456 397.106 186.64 398.471 183.056H409.095C407.986 186.981 406.151 190.48 403.591 193.552C401.031 196.624 397.831 199.056 393.991 200.848C390.236 202.64 385.842 203.536 380.807 203.536ZM448.316 203.536C442.343 203.536 436.967 202.171 432.188 199.44C427.409 196.709 423.612 192.869 420.796 187.92C418.065 182.885 416.7 176.997 416.7 170.256C416.7 163.515 418.108 157.669 420.924 152.72C423.74 147.685 427.537 143.803 432.316 141.072C437.18 138.341 442.599 136.976 448.572 136.976C454.545 136.976 459.921 138.341 464.7 141.072C469.479 143.803 473.233 147.685 475.964 152.72C478.78 157.669 480.188 163.515 480.188 170.256C480.188 176.997 478.78 182.885 475.964 187.92C473.148 192.869 469.308 196.709 464.444 199.44C459.665 202.171 454.289 203.536 448.316 203.536ZM448.316 195.216C451.985 195.216 455.399 194.32 458.556 192.528C461.713 190.651 464.273 187.877 466.236 184.208C468.199 180.539 469.18 175.888 469.18 170.256C469.18 164.624 468.199 159.973 466.236 156.304C464.359 152.549 461.841 149.776 458.684 147.984C455.527 146.192 452.156 145.296 448.572 145.296C444.988 145.296 441.575 146.192 438.332 147.984C435.175 149.776 432.615 152.549 430.652 156.304C428.689 159.973 427.708 164.624 427.708 170.256C427.708 175.888 428.689 180.539 430.652 184.208C432.615 187.877 435.132 190.651 438.204 192.528C441.361 194.32 444.732 195.216 448.316 195.216Z" fill="black"/>
<path d="M122 243L88.225 197.25L155.775 197.25L122 243Z" fill="#1E1E1E"/>
<path d="M122 149L88.225 103.25L155.775 103.25L122 149Z" fill="#1E1E1E"/>
<path d="M156 196L122.225 150.25L189.775 150.25L156 196Z" fill="#1E1E1E"/>
<path d="M88 196L54.225 150.25L121.775 150.25L88 196Z" fill="#1E1E1E"/>
<path d="M88 104L121.775 149.75H54.225L88 104Z" fill="#1E1E1E"/>
<path d="M156 104L189.775 149.75H122.225L156 104Z" fill="#1E1E1E"/>
<path d="M122 57L155.775 102.75H88.225L122 57Z" fill="#1E1E1E"/>
<path d="M122 151L155.775 196.75H88.225L122 151Z" fill="#1E1E1E"/>
<path d="M122 243L88.225 197.25L155.775 197.25L122 243Z" fill="#E1272D" fill-opacity="0.76"/>
<path d="M122 149L88.225 103.25L155.775 103.25L122 149Z" fill="#ED5753" fill-opacity="0.68"/>
<path d="M156 196L122.225 150.25L189.775 150.25L156 196Z" fill="#ED5753" fill-opacity="0.68"/>
<path d="M88 196L54.225 150.25L121.775 150.25L88 196Z" fill="#ED5753" fill-opacity="0.68"/>
<path d="M88 104L121.775 149.75H54.225L88 104Z" fill="#AC262F" fill-opacity="0.72"/>
<path d="M156 104L189.775 149.75H122.225L156 104Z" fill="#AC262F" fill-opacity="0.72"/>
<path d="M122 57L155.775 102.75H88.225L122 57Z" fill="#FF2C3A" fill-opacity="0.76"/>
<path d="M122 151L155.775 196.75H88.225L122 151Z" fill="#E1272D" fill-opacity="0.69"/>
</svg>
