<svg width="204" height="112" viewBox="0 0 204 112" fill="none" xmlns="http://www.w3.org/2000/svg">
<rect width="204" height="112" fill="white"/>
<g clip-path="url(#clip0_4_14)">
<path fill-rule="evenodd" clip-rule="evenodd" d="M61.634 49.792V53H61.687C61.7655 52.9081 61.837 52.8105 61.901 52.708C61.972 52.596 62.062 52.486 62.168 52.375C62.738 51.597 63.514 50.881 64.495 50.229C65.476 49.577 66.875 49.25 68.693 49.25C71.26 49.25 73.515 50.194 75.458 52.084C76.553 53.149 77.339 54.522 77.817 56.204C78.381 54.57 79.269 53.243 80.48 52.22C82.6515 50.3405 85.4352 49.3197 88.307 49.35C91.26 49.35 93.869 50.306 96.134 52.22C97.34 53.239 98.224 54.56 98.787 56.184L98.817 55.881C98.8516 55.5691 98.9034 55.2593 98.972 54.953C99.317 53.547 100.163 52.254 101.509 51.073C102.855 49.892 104.978 49.302 107.877 49.302L108.809 49.323L109.793 49.386C111.76 49.555 113.573 50.138 115.229 51.136C116.885 52.134 117.818 53.997 118.025 56.724V56.682H112.226L112.2 56.618C112.185 56.5849 112.177 56.5493 112.175 56.513C112.036 55.81 111.726 55.177 111.243 54.615C110.76 54.053 109.758 53.772 108.239 53.772C106.893 53.772 105.979 53.947 105.495 54.299C105.011 54.651 104.735 55.037 104.666 55.459C104.633 55.5392 104.615 55.6252 104.615 55.712V55.965C104.615 56.612 105.02 57.09 105.832 57.399C106.644 57.708 107.635 57.975 108.809 58.2L110.207 58.474L111.708 58.833C113.469 59.226 115.083 59.866 116.549 60.752C118.015 61.638 118.75 63.12 118.75 65.201C118.75 67.45 118.12 69.123 116.86 70.219C115.6 71.315 114.211 72.046 112.692 72.412C112.002 72.581 111.329 72.7 110.673 72.771L108.861 72.877H108.369C108.204 72.876 108.04 72.8617 107.877 72.834C105.426 72.75 103.183 72.152 101.147 71.042C99.686 70.246 98.732 69.011 98.283 67.34C97.742 68.427 97.027 69.346 96.134 70.094C93.869 71.993 91.26 72.943 88.307 72.943C85.4387 72.9745 82.6569 71.9619 80.48 70.094C79.127 68.96 78.177 67.44 77.632 65.538C77.2532 66.7115 76.7295 67.8331 76.073 68.877C74.54 71.322 72.026 72.544 68.532 72.544C67.07 72.544 65.894 72.336 65.002 71.919C64.11 71.502 63.434 71.03 62.97 70.502C62.72 70.252 62.515 70.016 62.355 69.793C62.2089 69.5929 62.075 69.3842 61.954 69.168L61.9 69.126V80H55.75V49.792H61.634ZM99.487 59.823L99.532 61.168V61.126C99.532 62.613 99.381 63.954 99.079 65.152L104.098 65.118C104.098 66.102 104.452 66.903 105.159 67.522C105.866 68.141 107.153 68.45 109.017 68.45C110.086 68.45 110.897 68.302 111.45 68.007C112.003 67.712 112.364 67.382 112.537 67.016C112.633 66.8671 112.703 66.7031 112.744 66.531C112.779 66.377 112.795 66.243 112.795 66.13C112.795 65.427 112.373 64.921 111.527 64.612C110.681 64.303 109.654 64.022 108.447 63.769L107.153 63.516L105.807 63.22C104.047 62.799 102.433 62.152 100.966 61.281C100.358 60.9275 99.8494 60.4268 99.486 59.825L99.487 59.823ZM93.593 61.125L93.568 60.197C93.5507 59.8567 93.5086 59.5182 93.442 59.184C93.241 57.975 92.771 56.863 92.033 55.85C91.295 54.837 90.053 54.33 88.308 54.33C86.563 54.33 85.313 54.837 84.558 55.85C83.803 56.863 83.342 57.975 83.174 59.184C83.1074 59.5182 83.0653 59.8567 83.048 60.197L83.023 61.168L83.048 62.139C83.065 62.476 83.107 62.814 83.174 63.152C83.341 64.362 83.803 65.473 84.558 66.486C85.313 67.499 86.563 68.006 88.308 68.006C90.053 68.006 91.295 67.499 92.033 66.486C92.7592 65.5015 93.2421 64.359 93.442 63.152C93.5086 62.8178 93.5507 62.4793 93.568 62.139L93.593 61.168V61.125ZM61.635 61.376C61.635 63.043 62.045 64.529 62.865 65.834C63.685 67.139 65.076 67.792 67.037 67.792C68.463 67.792 69.55 67.327 70.299 66.396C71.048 65.465 71.547 64.459 71.797 63.375C71.904 62.959 71.975 62.556 72.01 62.167L72.064 61.083C72.064 59.333 71.68 57.763 70.914 56.375C70.148 54.987 68.783 54.292 66.822 54.292C64.754 54.292 63.372 55.021 62.678 56.479C61.984 57.937 61.635 59.542 61.635 61.292V61.354V61.417V61.376ZM139.545 57.23V72.042H133.927V59.041L133.903 58.356L133.83 57.511C133.699 56.867 133.39 56.264 132.902 55.7C132.414 55.136 131.534 54.855 130.264 54.855C129.026 54.855 127.984 55.271 127.138 56.103C126.292 56.935 125.868 58.169 125.868 59.806V72.042H120.25V50.629H125.624V53.769H125.721L126.16 53.125C126.341 52.8593 126.537 52.6039 126.747 52.36C127.236 51.796 127.911 51.28 128.774 50.81C129.637 50.34 130.752 50.106 132.12 50.106C134.205 50.106 135.963 50.71 137.395 51.917C138.827 53.124 139.545 54.909 139.545 57.27V57.23ZM193 50.588L186.425 72.001H180.266L176.717 56.384H176.612L173.064 72.001H166.906L160.486 50.588H166.854L170.402 65.964H170.507L173.742 50.588H179.744L183.188 65.964H183.241L186.842 50.588H193ZM161.607 61.23C161.607 65.121 160.536 67.972 158.393 69.783C156.34 71.5618 153.707 72.5282 150.99 72.5C148.273 72.5284 145.64 71.562 143.586 69.783C141.444 67.972 140.373 65.134 140.373 61.27C140.373 57.406 141.444 54.562 143.586 52.737C145.728 50.912 148.196 50 150.99 50C153.71 49.9727 156.345 50.9469 158.393 52.737C160.535 54.561 161.607 57.406 161.607 61.27V61.23ZM155.989 61.23L155.965 60.344C155.949 60.0196 155.909 59.6967 155.846 59.378C155.656 58.224 155.211 57.164 154.513 56.198C153.815 55.232 152.64 54.749 150.99 54.749C149.34 54.749 148.157 55.232 147.443 56.198C146.743 57.1293 146.292 58.2238 146.133 59.378C146.069 59.7 146.03 60.022 146.014 60.344L145.99 61.27L146.014 62.196C146.03 62.518 146.069 62.84 146.133 63.162C146.292 64.3158 146.743 65.4099 147.443 66.341C148.157 67.307 149.339 67.79 150.99 67.79C152.641 67.79 153.815 67.307 154.513 66.341C155.211 65.375 155.656 64.315 155.846 63.162C155.909 62.8433 155.948 62.5204 155.965 62.196L155.989 61.27V61.23Z" fill="#292936"/>
<mask id="mask0_4_14" style="mask-type:alpha" maskUnits="userSpaceOnUse" x="10" y="32" width="45" height="45">
<path fill-rule="evenodd" clip-rule="evenodd" d="M10 32.012H54.98V76.997H10V32.012Z" fill="white"/>
</mask>
<g mask="url(#mask0_4_14)">
<path fill-rule="evenodd" clip-rule="evenodd" d="M38.733 73.686C31.288 73.686 25.25 67.824 25.25 60.594C25.25 53.364 31.288 47.503 38.733 47.503C42.968 47.503 46.747 49.399 49.218 52.366L33.39 66.762C37.296 70.329 46.758 69.42 47.512 58.507L52.012 58.311C52.146 59.052 52.217 59.816 52.217 60.594C52.217 67.824 46.179 73.686 38.733 73.686ZM32.49 32.012C20.069 32.012 10 42.082 10 54.505C10 66.928 20.069 76.998 32.49 76.998C44.911 76.998 54.98 66.928 54.98 54.506C54.98 42.084 44.911 32.012 32.49 32.012Z" fill="#292936"/>
<path fill-rule="evenodd" clip-rule="evenodd" d="M38.29 52.259C33.851 52.458 30.25 55.884 30.25 59.91C30.25 60.929 30.481 61.888 30.898 62.75L41.5 52.719C40.517 52.374 39.432 52.207 38.29 52.259Z" fill="#292936"/>
</g>
</g>
<defs>
<clipPath id="clip0_4_14">
<rect width="183" height="48" fill="white" transform="translate(10 32)"/>
</clipPath>
</defs>
</svg>
